<?xml version="1.0" encoding="UTF-8" ?>
<svg version="1.1" width="39" height="37" xmlns="http://www.w3.org/2000/svg" shape-rendering="crispEdges">
<rect x="17" y="3" width="1" height="1" fill="#000000" opacity="0.058824" />
<rect x="18" y="3" width="1" height="1" fill="#000000" opacity="0.486275" />
<rect x="19" y="3" width="1" height="1" fill="#000000" opacity="0.701961" />
<rect x="20" y="3" width="1" height="1" fill="#000000" opacity="0.701961" />
<rect x="21" y="3" width="1" height="1" fill="#000000" opacity="0.486275" />
<rect x="22" y="3" width="1" height="1" fill="#000000" opacity="0.082353" />
<rect x="16" y="4" width="1" height="1" fill="#000000" opacity="0.219608" />
<rect x="17" y="4" width="1" height="1" fill="#030303" opacity="0.898039" />
<rect x="18" y="4" width="1" height="1" fill="#020202" opacity="0.996078" />
<rect x="19" y="4" width="1" height="1" fill="#2F2F2F" opacity="0.988235" />
<rect x="20" y="4" width="1" height="1" fill="#2E2E2E" opacity="0.992157" />
<rect x="21" y="4" width="1" height="1" fill="#020202" opacity="0.996078" />
<rect x="22" y="4" width="1" height="1" fill="#030303" opacity="0.941176" />
<rect x="23" y="4" width="1" height="1" fill="#000000" opacity="0.227451" />
<rect x="15" y="5" width="1" height="1" fill="#000000" opacity="0.058824" />
<rect x="16" y="5" width="1" height="1" fill="#030303" opacity="0.898039" />
<rect x="17" y="5" width="1" height="1" fill="#242424" opacity="0.988235" />
<rect x="18" y="5" width="1" height="1" fill="#D1D1D1" />
<rect x="19" y="5" width="1" height="1" fill="#FFFFFF" />
<rect x="20" y="5" width="1" height="1" fill="#FFFFFF" />
<rect x="21" y="5" width="1" height="1" fill="#D8D8D8" />
<rect x="22" y="5" width="1" height="1" fill="#252525" opacity="0.988235" />
<rect x="23" y="5" width="1" height="1" fill="#030303" opacity="0.894118" />
<rect x="24" y="5" width="1" height="1" fill="#000000" opacity="0.058824" />
<rect x="15" y="6" width="1" height="1" fill="#000000" opacity="0.486275" />
<rect x="16" y="6" width="1" height="1" fill="#020202" opacity="0.996078" />
<rect x="17" y="6" width="1" height="1" fill="#D1D1D1" />
<rect x="18" y="6" width="1" height="1" fill="#FFFFFF" />
<rect x="19" y="6" width="1" height="1" fill="#FFFFFF" />
<rect x="20" y="6" width="1" height="1" fill="#FFFFFF" />
<rect x="21" y="6" width="1" height="1" fill="#FFFFFF" />
<rect x="22" y="6" width="1" height="1" fill="#D0D0D0" />
<rect x="23" y="6" width="1" height="1" fill="#010101" opacity="0.996078" />
<rect x="24" y="6" width="1" height="1" fill="#000000" opacity="0.478431" />
<rect x="15" y="7" width="1" height="1" fill="#000000" opacity="0.701961" />
<rect x="16" y="7" width="1" height="1" fill="#2F2F2F" opacity="0.988235" />
<rect x="17" y="7" width="1" height="1" fill="#FFFFFF" />
<rect x="18" y="7" width="1" height="1" fill="#FFFFFF" />
<rect x="19" y="7" width="1" height="1" fill="#FFFFFF" />
<rect x="20" y="7" width="1" height="1" fill="#FFFFFF" />
<rect x="21" y="7" width="1" height="1" fill="#FFFFFF" />
<rect x="22" y="7" width="1" height="1" fill="#FFFFFF" />
<rect x="23" y="7" width="1" height="1" fill="#2D2D2D" opacity="0.988235" />
<rect x="24" y="7" width="1" height="1" fill="#000000" opacity="0.698039" />
<rect x="15" y="8" width="1" height="1" fill="#000000" opacity="0.670588" />
<rect x="16" y="8" width="1" height="1" fill="#292929" opacity="0.988235" />
<rect x="17" y="8" width="1" height="1" fill="#FFFFFF" />
<rect x="18" y="8" width="1" height="1" fill="#FFFFFF" />
<rect x="19" y="8" width="1" height="1" fill="#FFFFFF" />
<rect x="20" y="8" width="1" height="1" fill="#FFFFFF" />
<rect x="21" y="8" width="1" height="1" fill="#FFFFFF" />
<rect x="22" y="8" width="1" height="1" fill="#FFFFFF" />
<rect x="23" y="8" width="1" height="1" fill="#282828" opacity="0.984314" />
<rect x="24" y="8" width="1" height="1" fill="#000000" opacity="0.666667" />
<rect x="15" y="9" width="1" height="1" fill="#000000" opacity="0.466667" />
<rect x="16" y="9" width="1" height="1" fill="#010101" opacity="0.996078" />
<rect x="17" y="9" width="1" height="1" fill="#C9C9C9" />
<rect x="18" y="9" width="1" height="1" fill="#FFFFFF" />
<rect x="19" y="9" width="1" height="1" fill="#FFFFFF" />
<rect x="20" y="9" width="1" height="1" fill="#FFFFFF" />
<rect x="21" y="9" width="1" height="1" fill="#FFFFFF" />
<rect x="22" y="9" width="1" height="1" fill="#C9C9C9" />
<rect x="23" y="9" width="1" height="1" fill="#010101" opacity="0.996078" />
<rect x="24" y="9" width="1" height="1" fill="#000000" opacity="0.462745" />
<rect x="14" y="10" width="1" height="1" fill="#000000" opacity="0.023529" />
<rect x="15" y="10" width="1" height="1" fill="#000000" opacity="0.611765" />
<rect x="16" y="10" width="1" height="1" fill="#000000" />
<rect x="17" y="10" width="1" height="1" fill="#565656" />
<rect x="18" y="10" width="1" height="1" fill="#FFFFFF" />
<rect x="19" y="10" width="1" height="1" fill="#FFFFFF" />
<rect x="20" y="10" width="1" height="1" fill="#FFFFFF" />
<rect x="21" y="10" width="1" height="1" fill="#FFFFFF" />
<rect x="22" y="10" width="1" height="1" fill="#565656" />
<rect x="23" y="10" width="1" height="1" fill="#000000" />
<rect x="24" y="10" width="1" height="1" fill="#000000" opacity="0.607843" />
<rect x="25" y="10" width="1" height="1" fill="#000000" opacity="0.023529" />
<rect x="14" y="11" width="1" height="1" fill="#000000" opacity="0.592157" />
<rect x="15" y="11" width="1" height="1" fill="#010101" />
<rect x="16" y="11" width="1" height="1" fill="#717171" />
<rect x="17" y="11" width="1" height="1" fill="#F6F6F6" />
<rect x="18" y="11" width="1" height="1" fill="#FFFFFF" />
<rect x="19" y="11" width="1" height="1" fill="#FFFFFF" />
<rect x="20" y="11" width="1" height="1" fill="#FFFFFF" />
<rect x="21" y="11" width="1" height="1" fill="#FFFFFF" />
<rect x="22" y="11" width="1" height="1" fill="#F6F6F6" />
<rect x="23" y="11" width="1" height="1" fill="#717171" />
<rect x="24" y="11" width="1" height="1" fill="#010101" />
<rect x="25" y="11" width="1" height="1" fill="#000000" opacity="0.588235" />
<rect x="13" y="12" width="1" height="1" fill="#000000" opacity="0.298039" />
<rect x="14" y="12" width="1" height="1" fill="#000000" />
<rect x="15" y="12" width="1" height="1" fill="#7C7C7C" />
<rect x="16" y="12" width="1" height="1" fill="#FFFFFF" />
<rect x="17" y="12" width="1" height="1" fill="#FFFFFF" />
<rect x="18" y="12" width="1" height="1" fill="#FFFFFF" />
<rect x="19" y="12" width="1" height="1" fill="#FFFFFF" />
<rect x="20" y="12" width="1" height="1" fill="#FFFFFF" />
<rect x="21" y="12" width="1" height="1" fill="#FFFFFF" />
<rect x="22" y="12" width="1" height="1" fill="#FFFFFF" />
<rect x="23" y="12" width="1" height="1" fill="#FFFFFF" />
<rect x="24" y="12" width="1" height="1" fill="#7C7C7C" />
<rect x="25" y="12" width="1" height="1" fill="#000000" />
<rect x="26" y="12" width="1" height="1" fill="#000000" opacity="0.294118" />
<rect x="13" y="13" width="1" height="1" fill="#030303" opacity="0.756863" />
<rect x="14" y="13" width="1" height="1" fill="#202020" opacity="0.988235" />
<rect x="15" y="13" width="1" height="1" fill="#FCFCFC" />
<rect x="16" y="13" width="1" height="1" fill="#FFFFFF" />
<rect x="17" y="13" width="1" height="1" fill="#FFFFFF" />
<rect x="18" y="13" width="1" height="1" fill="#FFFFFF" />
<rect x="19" y="13" width="1" height="1" fill="#FFFFFF" />
<rect x="20" y="13" width="1" height="1" fill="#FFFFFF" />
<rect x="21" y="13" width="1" height="1" fill="#FFFFFF" />
<rect x="22" y="13" width="1" height="1" fill="#FFFFFF" />
<rect x="23" y="13" width="1" height="1" fill="#FFFFFF" />
<rect x="24" y="13" width="1" height="1" fill="#FCFCFC" />
<rect x="25" y="13" width="1" height="1" fill="#1F1F1F" opacity="0.988235" />
<rect x="26" y="13" width="1" height="1" fill="#030303" opacity="0.749020" />
<rect x="12" y="14" width="1" height="1" fill="#000000" opacity="0.050980" />
<rect x="13" y="14" width="1" height="1" fill="#000000" opacity="0.996078" />
<rect x="14" y="14" width="1" height="1" fill="#848484" />
<rect x="15" y="14" width="1" height="1" fill="#FFFFFF" />
<rect x="16" y="14" width="1" height="1" fill="#FFFFFF" />
<rect x="17" y="14" width="1" height="1" fill="#FFFFFF" />
<rect x="18" y="14" width="1" height="1" fill="#FFFFFF" />
<rect x="19" y="14" width="1" height="1" fill="#FFFFFF" />
<rect x="20" y="14" width="1" height="1" fill="#FFFFFF" />
<rect x="21" y="14" width="1" height="1" fill="#FFFFFF" />
<rect x="22" y="14" width="1" height="1" fill="#FFFFFF" />
<rect x="23" y="14" width="1" height="1" fill="#FFFFFF" />
<rect x="24" y="14" width="1" height="1" fill="#FFFFFF" />
<rect x="25" y="14" width="1" height="1" fill="#828282" />
<rect x="26" y="14" width="1" height="1" fill="#000000" opacity="0.996078" />
<rect x="27" y="14" width="1" height="1" fill="#000000" opacity="0.043137" />
<rect x="12" y="15" width="1" height="1" fill="#000000" opacity="0.184314" />
<rect x="13" y="15" width="1" height="1" fill="#000000" />
<rect x="14" y="15" width="1" height="1" fill="#AEAEAE" />
<rect x="15" y="15" width="1" height="1" fill="#FFFFFF" />
<rect x="16" y="15" width="1" height="1" fill="#FFFFFF" />
<rect x="17" y="15" width="1" height="1" fill="#FFFFFF" />
<rect x="18" y="15" width="1" height="1" fill="#FFFFFF" />
<rect x="19" y="15" width="1" height="1" fill="#FFFFFF" />
<rect x="20" y="15" width="1" height="1" fill="#FFFFFF" />
<rect x="21" y="15" width="1" height="1" fill="#FFFFFF" />
<rect x="22" y="15" width="1" height="1" fill="#FFFFFF" />
<rect x="23" y="15" width="1" height="1" fill="#FFFFFF" />
<rect x="24" y="15" width="1" height="1" fill="#FFFFFF" />
<rect x="25" y="15" width="1" height="1" fill="#ADADAD" />
<rect x="26" y="15" width="1" height="1" fill="#000000" />
<rect x="27" y="15" width="1" height="1" fill="#000000" opacity="0.180392" />
<rect x="12" y="16" width="1" height="1" fill="#000000" opacity="0.192157" />
<rect x="13" y="16" width="1" height="1" fill="#000000" />
<rect x="14" y="16" width="1" height="1" fill="#B1B1B1" />
<rect x="15" y="16" width="1" height="1" fill="#FFFFFF" />
<rect x="16" y="16" width="1" height="1" fill="#FFFFFF" />
<rect x="17" y="16" width="1" height="1" fill="#FFFFFF" />
<rect x="18" y="16" width="1" height="1" fill="#FFFFFF" />
<rect x="19" y="16" width="1" height="1" fill="#FFFFFF" />
<rect x="20" y="16" width="1" height="1" fill="#FFFFFF" />
<rect x="21" y="16" width="1" height="1" fill="#FFFFFF" />
<rect x="22" y="16" width="1" height="1" fill="#FFFFFF" />
<rect x="23" y="16" width="1" height="1" fill="#FFFFFF" />
<rect x="24" y="16" width="1" height="1" fill="#FFFFFF" />
<rect x="25" y="16" width="1" height="1" fill="#B0B0B0" />
<rect x="26" y="16" width="1" height="1" fill="#000000" />
<rect x="27" y="16" width="1" height="1" fill="#000000" opacity="0.188235" />
<rect x="12" y="17" width="1" height="1" fill="#000000" opacity="0.070588" />
<rect x="13" y="17" width="1" height="1" fill="#010101" opacity="0.996078" />
<rect x="14" y="17" width="1" height="1" fill="#858585" />
<rect x="15" y="17" width="1" height="1" fill="#FFFFFF" />
<rect x="16" y="17" width="1" height="1" fill="#FFFFFF" />
<rect x="17" y="17" width="1" height="1" fill="#FFFFFF" />
<rect x="18" y="17" width="1" height="1" fill="#FFFFFF" />
<rect x="19" y="17" width="1" height="1" fill="#FFFFFF" />
<rect x="20" y="17" width="1" height="1" fill="#FFFFFF" />
<rect x="21" y="17" width="1" height="1" fill="#FFFFFF" />
<rect x="22" y="17" width="1" height="1" fill="#FFFFFF" />
<rect x="23" y="17" width="1" height="1" fill="#FFFFFF" />
<rect x="24" y="17" width="1" height="1" fill="#FFFFFF" />
<rect x="25" y="17" width="1" height="1" fill="#838383" />
<rect x="26" y="17" width="1" height="1" fill="#010101" opacity="0.996078" />
<rect x="27" y="17" width="1" height="1" fill="#000000" opacity="0.066667" />
<rect x="13" y="18" width="1" height="1" fill="#030303" opacity="0.764706" />
<rect x="14" y="18" width="1" height="1" fill="#242424" opacity="0.988235" />
<rect x="15" y="18" width="1" height="1" fill="#FBFBFB" />
<rect x="16" y="18" width="1" height="1" fill="#FFFFFF" />
<rect x="17" y="18" width="1" height="1" fill="#FFFFFF" />
<rect x="18" y="18" width="1" height="1" fill="#FFFFFF" />
<rect x="19" y="18" width="1" height="1" fill="#FFFFFF" />
<rect x="20" y="18" width="1" height="1" fill="#FFFFFF" />
<rect x="21" y="18" width="1" height="1" fill="#FFFFFF" />
<rect x="22" y="18" width="1" height="1" fill="#FFFFFF" />
<rect x="23" y="18" width="1" height="1" fill="#FFFFFF" />
<rect x="24" y="18" width="1" height="1" fill="#FBFBFB" />
<rect x="25" y="18" width="1" height="1" fill="#232323" opacity="0.988235" />
<rect x="26" y="18" width="1" height="1" fill="#030303" opacity="0.760784" />
<rect x="13" y="19" width="1" height="1" fill="#000000" opacity="0.301961" />
<rect x="14" y="19" width="1" height="1" fill="#000000" />
<rect x="15" y="19" width="1" height="1" fill="#7D7D7D" />
<rect x="16" y="19" width="1" height="1" fill="#FFFFFF" />
<rect x="17" y="19" width="1" height="1" fill="#FFFFFF" />
<rect x="18" y="19" width="1" height="1" fill="#FFFFFF" />
<rect x="19" y="19" width="1" height="1" fill="#FFFFFF" />
<rect x="20" y="19" width="1" height="1" fill="#FFFFFF" />
<rect x="21" y="19" width="1" height="1" fill="#FFFFFF" />
<rect x="22" y="19" width="1" height="1" fill="#FFFFFF" />
<rect x="23" y="19" width="1" height="1" fill="#FFFFFF" />
<rect x="24" y="19" width="1" height="1" fill="#7C7C7C" />
<rect x="25" y="19" width="1" height="1" fill="#000000" />
<rect x="26" y="19" width="1" height="1" fill="#000000" opacity="0.294118" />
<rect x="14" y="20" width="1" height="1" fill="#000000" opacity="0.686275" />
<rect x="15" y="20" width="1" height="1" fill="#000000" />
<rect x="16" y="20" width="1" height="1" fill="#757575" />
<rect x="17" y="20" width="1" height="1" fill="#FEFEFE" />
<rect x="18" y="20" width="1" height="1" fill="#FFFFFF" />
<rect x="19" y="20" width="1" height="1" fill="#FFFFFF" />
<rect x="20" y="20" width="1" height="1" fill="#FFFFFF" />
<rect x="21" y="20" width="1" height="1" fill="#FFFFFF" />
<rect x="22" y="20" width="1" height="1" fill="#FEFEFE" />
<rect x="23" y="20" width="1" height="1" fill="#757575" />
<rect x="24" y="20" width="1" height="1" fill="#000000" />
<rect x="25" y="20" width="1" height="1" fill="#010101" opacity="0.682353" />
<rect x="12" y="21" width="1" height="1" fill="#000000" opacity="0.007843" />
<rect x="13" y="21" width="1" height="1" fill="#000000" opacity="0.466667" />
<rect x="14" y="21" width="1" height="1" fill="#020202" opacity="0.984314" />
<rect x="15" y="21" width="1" height="1" fill="#040404" opacity="0.996078" />
<rect x="16" y="21" width="1" height="1" fill="#555555" />
<rect x="17" y="21" width="1" height="1" fill="#E2E2E2" />
<rect x="18" y="21" width="1" height="1" fill="#FFFFFF" />
<rect x="19" y="21" width="1" height="1" fill="#FFFFFF" />
<rect x="20" y="21" width="1" height="1" fill="#FFFFFF" />
<rect x="21" y="21" width="1" height="1" fill="#FFFFFF" />
<rect x="22" y="21" width="1" height="1" fill="#E2E2E2" />
<rect x="23" y="21" width="1" height="1" fill="#555555" />
<rect x="24" y="21" width="1" height="1" fill="#040404" opacity="0.996078" />
<rect x="25" y="21" width="1" height="1" fill="#020202" opacity="0.984314" />
<rect x="26" y="21" width="1" height="1" fill="#000000" opacity="0.462745" />
<rect x="27" y="21" width="1" height="1" fill="#000000" opacity="0.007843" />
<rect x="11" y="22" width="1" height="1" fill="#000000" opacity="0.011765" />
<rect x="12" y="22" width="1" height="1" fill="#000000" opacity="0.623529" />
<rect x="13" y="22" width="1" height="1" fill="#000000" />
<rect x="14" y="22" width="1" height="1" fill="#565656" opacity="0.996078" />
<rect x="15" y="22" width="1" height="1" fill="#E7E7E7" />
<rect x="16" y="22" width="1" height="1" fill="#FFFFFF" />
<rect x="17" y="22" width="1" height="1" fill="#FFFFFF" />
<rect x="18" y="22" width="1" height="1" fill="#FFFFFF" />
<rect x="19" y="22" width="1" height="1" fill="#FFFFFF" />
<rect x="20" y="22" width="1" height="1" fill="#FFFFFF" />
<rect x="21" y="22" width="1" height="1" fill="#FFFFFF" />
<rect x="22" y="22" width="1" height="1" fill="#FFFFFF" />
<rect x="23" y="22" width="1" height="1" fill="#FFFFFF" />
<rect x="24" y="22" width="1" height="1" fill="#E7E7E7" />
<rect x="25" y="22" width="1" height="1" fill="#555555" opacity="0.996078" />
<rect x="26" y="22" width="1" height="1" fill="#000000" />
<rect x="27" y="22" width="1" height="1" fill="#000000" opacity="0.615686" />
<rect x="28" y="22" width="1" height="1" fill="#000000" opacity="0.007843" />
<rect x="11" y="23" width="1" height="1" fill="#000000" opacity="0.576471" />
<rect x="12" y="23" width="1" height="1" fill="#000000" />
<rect x="13" y="23" width="1" height="1" fill="#828282" />
<rect x="14" y="23" width="1" height="1" fill="#FFFFFF" />
<rect x="15" y="23" width="1" height="1" fill="#FFFFFF" />
<rect x="16" y="23" width="1" height="1" fill="#FFFFFF" />
<rect x="17" y="23" width="1" height="1" fill="#FFFFFF" />
<rect x="18" y="23" width="1" height="1" fill="#FFFFFF" />
<rect x="19" y="23" width="1" height="1" fill="#FFFFFF" />
<rect x="20" y="23" width="1" height="1" fill="#FFFFFF" />
<rect x="21" y="23" width="1" height="1" fill="#FFFFFF" />
<rect x="22" y="23" width="1" height="1" fill="#FFFFFF" />
<rect x="23" y="23" width="1" height="1" fill="#FFFFFF" />
<rect x="24" y="23" width="1" height="1" fill="#FFFFFF" />
<rect x="25" y="23" width="1" height="1" fill="#FFFFFF" />
<rect x="26" y="23" width="1" height="1" fill="#818181" />
<rect x="27" y="23" width="1" height="1" fill="#000000" />
<rect x="28" y="23" width="1" height="1" fill="#000000" opacity="0.564706" />
<rect x="10" y="24" width="1" height="1" fill="#000000" opacity="0.337255" />
<rect x="11" y="24" width="1" height="1" fill="#000000" />
<rect x="12" y="24" width="1" height="1" fill="#737373" />
<rect x="13" y="24" width="1" height="1" fill="#FFFFFF" />
<rect x="14" y="24" width="1" height="1" fill="#FFFFFF" />
<rect x="15" y="24" width="1" height="1" fill="#FFFFFF" />
<rect x="16" y="24" width="1" height="1" fill="#FFFFFF" />
<rect x="17" y="24" width="1" height="1" fill="#FFFFFF" />
<rect x="18" y="24" width="1" height="1" fill="#FFFFFF" />
<rect x="19" y="24" width="1" height="1" fill="#FFFFFF" />
<rect x="20" y="24" width="1" height="1" fill="#FFFFFF" />
<rect x="21" y="24" width="1" height="1" fill="#FFFFFF" />
<rect x="22" y="24" width="1" height="1" fill="#FFFFFF" />
<rect x="23" y="24" width="1" height="1" fill="#FFFFFF" />
<rect x="24" y="24" width="1" height="1" fill="#FFFFFF" />
<rect x="25" y="24" width="1" height="1" fill="#FFFFFF" />
<rect x="26" y="24" width="1" height="1" fill="#FFFFFF" />
<rect x="27" y="24" width="1" height="1" fill="#717171" />
<rect x="28" y="24" width="1" height="1" fill="#000000" />
<rect x="29" y="24" width="1" height="1" fill="#000000" opacity="0.329412" />
<rect x="9" y="25" width="1" height="1" fill="#000000" opacity="0.047059" />
<rect x="10" y="25" width="1" height="1" fill="#030303" opacity="0.917647" />
<rect x="11" y="25" width="1" height="1" fill="#363636" opacity="0.992157" />
<rect x="12" y="25" width="1" height="1" fill="#FBFBFB" />
<rect x="13" y="25" width="1" height="1" fill="#FFFFFF" />
<rect x="14" y="25" width="1" height="1" fill="#FFFFFF" />
<rect x="15" y="25" width="1" height="1" fill="#FFFFFF" />
<rect x="16" y="25" width="1" height="1" fill="#FFFFFF" />
<rect x="17" y="25" width="1" height="1" fill="#FFFFFF" />
<rect x="18" y="25" width="1" height="1" fill="#FFFFFF" />
<rect x="19" y="25" width="1" height="1" fill="#FFFFFF" />
<rect x="20" y="25" width="1" height="1" fill="#FFFFFF" />
<rect x="21" y="25" width="1" height="1" fill="#FFFFFF" />
<rect x="22" y="25" width="1" height="1" fill="#FFFFFF" />
<rect x="23" y="25" width="1" height="1" fill="#FFFFFF" />
<rect x="24" y="25" width="1" height="1" fill="#FFFFFF" />
<rect x="25" y="25" width="1" height="1" fill="#FFFFFF" />
<rect x="26" y="25" width="1" height="1" fill="#FFFFFF" />
<rect x="27" y="25" width="1" height="1" fill="#FAFAFA" />
<rect x="28" y="25" width="1" height="1" fill="#353535" opacity="0.992157" />
<rect x="29" y="25" width="1" height="1" fill="#030303" opacity="0.913725" />
<rect x="30" y="25" width="1" height="1" fill="#000000" opacity="0.047059" />
<rect x="9" y="26" width="1" height="1" fill="#000000" opacity="0.505882" />
<rect x="10" y="26" width="1" height="1" fill="#010101" />
<rect x="11" y="26" width="1" height="1" fill="#CBCBCB" />
<rect x="12" y="26" width="1" height="1" fill="#FFFFFF" />
<rect x="13" y="26" width="1" height="1" fill="#FFFFFF" />
<rect x="14" y="26" width="1" height="1" fill="#FFFFFF" />
<rect x="15" y="26" width="1" height="1" fill="#FFFFFF" />
<rect x="16" y="26" width="1" height="1" fill="#FFFFFF" />
<rect x="17" y="26" width="1" height="1" fill="#FFFFFF" />
<rect x="18" y="26" width="1" height="1" fill="#FFFFFF" />
<rect x="19" y="26" width="1" height="1" fill="#FFFFFF" />
<rect x="20" y="26" width="1" height="1" fill="#FFFFFF" />
<rect x="21" y="26" width="1" height="1" fill="#FFFFFF" />
<rect x="22" y="26" width="1" height="1" fill="#FFFFFF" />
<rect x="23" y="26" width="1" height="1" fill="#FFFFFF" />
<rect x="24" y="26" width="1" height="1" fill="#FFFFFF" />
<rect x="25" y="26" width="1" height="1" fill="#FFFFFF" />
<rect x="26" y="26" width="1" height="1" fill="#FFFFFF" />
<rect x="27" y="26" width="1" height="1" fill="#FFFFFF" />
<rect x="28" y="26" width="1" height="1" fill="#C9C9C9" />
<rect x="29" y="26" width="1" height="1" fill="#010101" />
<rect x="30" y="26" width="1" height="1" fill="#000000" opacity="0.494118" />
<rect x="8" y="27" width="1" height="1" fill="#000000" opacity="0.019608" />
<rect x="9" y="27" width="1" height="1" fill="#030303" opacity="0.921569" />
<rect x="10" y="27" width="1" height="1" fill="#525252" />
<rect x="11" y="27" width="1" height="1" fill="#FFFFFF" />
<rect x="12" y="27" width="1" height="1" fill="#FFFFFF" />
<rect x="13" y="27" width="1" height="1" fill="#FFFFFF" />
<rect x="14" y="27" width="1" height="1" fill="#FFFFFF" />
<rect x="15" y="27" width="1" height="1" fill="#FFFFFF" />
<rect x="16" y="27" width="1" height="1" fill="#FFFFFF" />
<rect x="17" y="27" width="1" height="1" fill="#FFFFFF" />
<rect x="18" y="27" width="1" height="1" fill="#FFFFFF" />
<rect x="19" y="27" width="1" height="1" fill="#FFFFFF" />
<rect x="20" y="27" width="1" height="1" fill="#FFFFFF" />
<rect x="21" y="27" width="1" height="1" fill="#FFFFFF" />
<rect x="22" y="27" width="1" height="1" fill="#FFFFFF" />
<rect x="23" y="27" width="1" height="1" fill="#FFFFFF" />
<rect x="24" y="27" width="1" height="1" fill="#FFFFFF" />
<rect x="25" y="27" width="1" height="1" fill="#FFFFFF" />
<rect x="26" y="27" width="1" height="1" fill="#FFFFFF" />
<rect x="27" y="27" width="1" height="1" fill="#FFFFFF" />
<rect x="28" y="27" width="1" height="1" fill="#FFFFFF" />
<rect x="29" y="27" width="1" height="1" fill="#4F4F4F" />
<rect x="30" y="27" width="1" height="1" fill="#030303" opacity="0.917647" />
<rect x="31" y="27" width="1" height="1" fill="#000000" opacity="0.015686" />
<rect x="8" y="28" width="1" height="1" fill="#000000" opacity="0.305882" />
<rect x="9" y="28" width="1" height="1" fill="#000000" />
<rect x="10" y="28" width="1" height="1" fill="#B4B4B4" />
<rect x="11" y="28" width="1" height="1" fill="#FFFFFF" />
<rect x="12" y="28" width="1" height="1" fill="#FFFFFF" />
<rect x="13" y="28" width="1" height="1" fill="#FFFFFF" />
<rect x="14" y="28" width="1" height="1" fill="#FFFFFF" />
<rect x="15" y="28" width="1" height="1" fill="#FFFFFF" />
<rect x="16" y="28" width="1" height="1" fill="#FFFFFF" />
<rect x="17" y="28" width="1" height="1" fill="#FFFFFF" />
<rect x="18" y="28" width="1" height="1" fill="#FFFFFF" />
<rect x="19" y="28" width="1" height="1" fill="#FFFFFF" />
<rect x="20" y="28" width="1" height="1" fill="#FFFFFF" />
<rect x="21" y="28" width="1" height="1" fill="#FFFFFF" />
<rect x="22" y="28" width="1" height="1" fill="#FFFFFF" />
<rect x="23" y="28" width="1" height="1" fill="#FFFFFF" />
<rect x="24" y="28" width="1" height="1" fill="#FFFFFF" />
<rect x="25" y="28" width="1" height="1" fill="#FFFFFF" />
<rect x="26" y="28" width="1" height="1" fill="#FFFFFF" />
<rect x="27" y="28" width="1" height="1" fill="#FFFFFF" />
<rect x="28" y="28" width="1" height="1" fill="#FFFFFF" />
<rect x="29" y="28" width="1" height="1" fill="#B2B2B2" />
<rect x="30" y="28" width="1" height="1" fill="#000000" />
<rect x="31" y="28" width="1" height="1" fill="#000000" opacity="0.294118" />
<rect x="8" y="29" width="1" height="1" fill="#000000" opacity="0.596078" />
<rect x="9" y="29" width="1" height="1" fill="#0E0E0E" opacity="0.988235" />
<rect x="10" y="29" width="1" height="1" fill="#FBFBFB" />
<rect x="11" y="29" width="1" height="1" fill="#FFFFFF" />
<rect x="12" y="29" width="1" height="1" fill="#FFFFFF" />
<rect x="13" y="29" width="1" height="1" fill="#FFFFFF" />
<rect x="14" y="29" width="1" height="1" fill="#FFFFFF" />
<rect x="15" y="29" width="1" height="1" fill="#FFFFFF" />
<rect x="16" y="29" width="1" height="1" fill="#FFFFFF" />
<rect x="17" y="29" width="1" height="1" fill="#FFFFFF" />
<rect x="18" y="29" width="1" height="1" fill="#FFFFFF" />
<rect x="19" y="29" width="1" height="1" fill="#FFFFFF" />
<rect x="20" y="29" width="1" height="1" fill="#FFFFFF" />
<rect x="21" y="29" width="1" height="1" fill="#FFFFFF" />
<rect x="22" y="29" width="1" height="1" fill="#FFFFFF" />
<rect x="23" y="29" width="1" height="1" fill="#FFFFFF" />
<rect x="24" y="29" width="1" height="1" fill="#FFFFFF" />
<rect x="25" y="29" width="1" height="1" fill="#FFFFFF" />
<rect x="26" y="29" width="1" height="1" fill="#FFFFFF" />
<rect x="27" y="29" width="1" height="1" fill="#FFFFFF" />
<rect x="28" y="29" width="1" height="1" fill="#FFFFFF" />
<rect x="29" y="29" width="1" height="1" fill="#FBFBFB" />
<rect x="30" y="29" width="1" height="1" fill="#0E0E0E" opacity="0.988235" />
<rect x="31" y="29" width="1" height="1" fill="#000000" opacity="0.592157" />
<rect x="8" y="30" width="1" height="1" fill="#040404" opacity="0.831373" />
<rect x="9" y="30" width="1" height="1" fill="#494949" opacity="0.996078" />
<rect x="10" y="30" width="1" height="1" fill="#FFFFFF" />
<rect x="11" y="30" width="1" height="1" fill="#FFFFFF" />
<rect x="12" y="30" width="1" height="1" fill="#FFFFFF" />
<rect x="13" y="30" width="1" height="1" fill="#FFFFFF" />
<rect x="14" y="30" width="1" height="1" fill="#FFFFFF" />
<rect x="15" y="30" width="1" height="1" fill="#FFFFFF" />
<rect x="16" y="30" width="1" height="1" fill="#FFFFFF" />
<rect x="17" y="30" width="1" height="1" fill="#FFFFFF" />
<rect x="18" y="30" width="1" height="1" fill="#FFFFFF" />
<rect x="19" y="30" width="1" height="1" fill="#FFFFFF" />
<rect x="20" y="30" width="1" height="1" fill="#FFFFFF" />
<rect x="21" y="30" width="1" height="1" fill="#FFFFFF" />
<rect x="22" y="30" width="1" height="1" fill="#FFFFFF" />
<rect x="23" y="30" width="1" height="1" fill="#FFFFFF" />
<rect x="24" y="30" width="1" height="1" fill="#FFFFFF" />
<rect x="25" y="30" width="1" height="1" fill="#FFFFFF" />
<rect x="26" y="30" width="1" height="1" fill="#FFFFFF" />
<rect x="27" y="30" width="1" height="1" fill="#FFFFFF" />
<rect x="28" y="30" width="1" height="1" fill="#FFFFFF" />
<rect x="29" y="30" width="1" height="1" fill="#FFFFFF" />
<rect x="30" y="30" width="1" height="1" fill="#464646" opacity="0.996078" />
<rect x="31" y="30" width="1" height="1" fill="#040404" opacity="0.823529" />
<rect x="7" y="31" width="1" height="1" fill="#000000" opacity="0.031373" />
<rect x="8" y="31" width="1" height="1" fill="#010101" opacity="0.992157" />
<rect x="9" y="31" width="1" height="1" fill="#7F7F7F" />
<rect x="10" y="31" width="1" height="1" fill="#FFFFFF" />
<rect x="11" y="31" width="1" height="1" fill="#FFFFFF" />
<rect x="12" y="31" width="1" height="1" fill="#FFFFFF" />
<rect x="13" y="31" width="1" height="1" fill="#FFFFFF" />
<rect x="14" y="31" width="1" height="1" fill="#FFFFFF" />
<rect x="15" y="31" width="1" height="1" fill="#FFFFFF" />
<rect x="16" y="31" width="1" height="1" fill="#FFFFFF" />
<rect x="17" y="31" width="1" height="1" fill="#FFFFFF" />
<rect x="18" y="31" width="1" height="1" fill="#FFFFFF" />
<rect x="19" y="31" width="1" height="1" fill="#FFFFFF" />
<rect x="20" y="31" width="1" height="1" fill="#FFFFFF" />
<rect x="21" y="31" width="1" height="1" fill="#FFFFFF" />
<rect x="22" y="31" width="1" height="1" fill="#FFFFFF" />
<rect x="23" y="31" width="1" height="1" fill="#FFFFFF" />
<rect x="24" y="31" width="1" height="1" fill="#FFFFFF" />
<rect x="25" y="31" width="1" height="1" fill="#FFFFFF" />
<rect x="26" y="31" width="1" height="1" fill="#FFFFFF" />
<rect x="27" y="31" width="1" height="1" fill="#FFFFFF" />
<rect x="28" y="31" width="1" height="1" fill="#FFFFFF" />
<rect x="29" y="31" width="1" height="1" fill="#FFFFFF" />
<rect x="30" y="31" width="1" height="1" fill="#7E7E7E" />
<rect x="31" y="31" width="1" height="1" fill="#010101" opacity="0.988235" />
<rect x="32" y="31" width="1" height="1" fill="#000000" opacity="0.027451" />
<rect x="7" y="32" width="1" height="1" fill="#000000" opacity="0.101961" />
<rect x="8" y="32" width="1" height="1" fill="#000000" />
<rect x="9" y="32" width="1" height="1" fill="#9E9E9E" />
<rect x="10" y="32" width="1" height="1" fill="#FFFFFF" />
<rect x="11" y="32" width="1" height="1" fill="#FFFFFF" />
<rect x="12" y="32" width="1" height="1" fill="#FFFFFF" />
<rect x="13" y="32" width="1" height="1" fill="#FFFFFF" />
<rect x="14" y="32" width="1" height="1" fill="#FFFFFF" />
<rect x="15" y="32" width="1" height="1" fill="#FFFFFF" />
<rect x="16" y="32" width="1" height="1" fill="#FFFFFF" />
<rect x="17" y="32" width="1" height="1" fill="#FFFFFF" />
<rect x="18" y="32" width="1" height="1" fill="#FFFFFF" />
<rect x="19" y="32" width="1" height="1" fill="#FFFFFF" />
<rect x="20" y="32" width="1" height="1" fill="#FFFFFF" />
<rect x="21" y="32" width="1" height="1" fill="#FFFFFF" />
<rect x="22" y="32" width="1" height="1" fill="#FFFFFF" />
<rect x="23" y="32" width="1" height="1" fill="#FFFFFF" />
<rect x="24" y="32" width="1" height="1" fill="#FFFFFF" />
<rect x="25" y="32" width="1" height="1" fill="#FFFFFF" />
<rect x="26" y="32" width="1" height="1" fill="#FFFFFF" />
<rect x="27" y="32" width="1" height="1" fill="#FFFFFF" />
<rect x="28" y="32" width="1" height="1" fill="#FFFFFF" />
<rect x="29" y="32" width="1" height="1" fill="#FFFFFF" />
<rect x="30" y="32" width="1" height="1" fill="#9B9B9B" />
<rect x="31" y="32" width="1" height="1" fill="#000000" />
<rect x="32" y="32" width="1" height="1" fill="#000000" opacity="0.094118" />
<rect x="7" y="33" width="1" height="1" fill="#000000" opacity="0.156863" />
<rect x="8" y="33" width="1" height="1" fill="#000000" />
<rect x="9" y="33" width="1" height="1" fill="#7E7E7E" />
<rect x="10" y="33" width="1" height="1" fill="#BBBBBB" />
<rect x="11" y="33" width="1" height="1" fill="#BBBBBB" />
<rect x="12" y="33" width="1" height="1" fill="#BBBBBB" />
<rect x="13" y="33" width="1" height="1" fill="#BBBBBB" />
<rect x="14" y="33" width="1" height="1" fill="#BBBBBB" />
<rect x="15" y="33" width="1" height="1" fill="#BBBBBB" />
<rect x="16" y="33" width="1" height="1" fill="#BBBBBB" />
<rect x="17" y="33" width="1" height="1" fill="#BBBBBB" />
<rect x="18" y="33" width="1" height="1" fill="#BBBBBB" />
<rect x="19" y="33" width="1" height="1" fill="#BBBBBB" />
<rect x="20" y="33" width="1" height="1" fill="#BBBBBB" />
<rect x="21" y="33" width="1" height="1" fill="#BBBBBB" />
<rect x="22" y="33" width="1" height="1" fill="#BBBBBB" />
<rect x="23" y="33" width="1" height="1" fill="#BBBBBB" />
<rect x="24" y="33" width="1" height="1" fill="#BBBBBB" />
<rect x="25" y="33" width="1" height="1" fill="#BBBBBB" />
<rect x="26" y="33" width="1" height="1" fill="#BBBBBB" />
<rect x="27" y="33" width="1" height="1" fill="#BBBBBB" />
<rect x="28" y="33" width="1" height="1" fill="#BBBBBB" />
<rect x="29" y="33" width="1" height="1" fill="#BBBBBB" />
<rect x="30" y="33" width="1" height="1" fill="#7D7D7D" />
<rect x="31" y="33" width="1" height="1" fill="#000000" />
<rect x="32" y="33" width="1" height="1" fill="#000000" opacity="0.152941" />
<rect x="7" y="34" width="1" height="1" fill="#000000" opacity="0.207843" />
<rect x="8" y="34" width="1" height="1" fill="#000000" />
<rect x="9" y="34" width="1" height="1" fill="#000000" />
<rect x="10" y="34" width="1" height="1" fill="#000000" />
<rect x="11" y="34" width="1" height="1" fill="#000000" />
<rect x="12" y="34" width="1" height="1" fill="#000000" />
<rect x="13" y="34" width="1" height="1" fill="#000000" />
<rect x="14" y="34" width="1" height="1" fill="#000000" />
<rect x="15" y="34" width="1" height="1" fill="#000000" />
<rect x="16" y="34" width="1" height="1" fill="#000000" />
<rect x="17" y="34" width="1" height="1" fill="#000000" />
<rect x="18" y="34" width="1" height="1" fill="#000000" />
<rect x="19" y="34" width="1" height="1" fill="#000000" />
<rect x="20" y="34" width="1" height="1" fill="#000000" />
<rect x="21" y="34" width="1" height="1" fill="#000000" />
<rect x="22" y="34" width="1" height="1" fill="#000000" />
<rect x="23" y="34" width="1" height="1" fill="#000000" />
<rect x="24" y="34" width="1" height="1" fill="#000000" />
<rect x="25" y="34" width="1" height="1" fill="#000000" />
<rect x="26" y="34" width="1" height="1" fill="#000000" />
<rect x="27" y="34" width="1" height="1" fill="#000000" />
<rect x="28" y="34" width="1" height="1" fill="#000000" />
<rect x="29" y="34" width="1" height="1" fill="#000000" />
<rect x="30" y="34" width="1" height="1" fill="#000000" />
<rect x="31" y="34" width="1" height="1" fill="#000000" />
<rect x="32" y="34" width="1" height="1" fill="#000000" opacity="0.207843" />
<rect x="7" y="35" width="1" height="1" fill="#000000" opacity="0.066667" />
<rect x="8" y="35" width="1" height="1" fill="#000000" opacity="0.266667" />
<rect x="9" y="35" width="1" height="1" fill="#000000" opacity="0.266667" />
<rect x="10" y="35" width="1" height="1" fill="#000000" opacity="0.266667" />
<rect x="11" y="35" width="1" height="1" fill="#000000" opacity="0.266667" />
<rect x="12" y="35" width="1" height="1" fill="#000000" opacity="0.266667" />
<rect x="13" y="35" width="1" height="1" fill="#000000" opacity="0.266667" />
<rect x="14" y="35" width="1" height="1" fill="#000000" opacity="0.266667" />
<rect x="15" y="35" width="1" height="1" fill="#000000" opacity="0.266667" />
<rect x="16" y="35" width="1" height="1" fill="#000000" opacity="0.266667" />
<rect x="17" y="35" width="1" height="1" fill="#000000" opacity="0.266667" />
<rect x="18" y="35" width="1" height="1" fill="#000000" opacity="0.266667" />
<rect x="19" y="35" width="1" height="1" fill="#000000" opacity="0.266667" />
<rect x="20" y="35" width="1" height="1" fill="#000000" opacity="0.266667" />
<rect x="21" y="35" width="1" height="1" fill="#000000" opacity="0.266667" />
<rect x="22" y="35" width="1" height="1" fill="#000000" opacity="0.266667" />
<rect x="23" y="35" width="1" height="1" fill="#000000" opacity="0.266667" />
<rect x="24" y="35" width="1" height="1" fill="#000000" opacity="0.266667" />
<rect x="25" y="35" width="1" height="1" fill="#000000" opacity="0.266667" />
<rect x="26" y="35" width="1" height="1" fill="#000000" opacity="0.266667" />
<rect x="27" y="35" width="1" height="1" fill="#000000" opacity="0.266667" />
<rect x="28" y="35" width="1" height="1" fill="#000000" opacity="0.266667" />
<rect x="29" y="35" width="1" height="1" fill="#000000" opacity="0.266667" />
<rect x="30" y="35" width="1" height="1" fill="#000000" opacity="0.266667" />
<rect x="31" y="35" width="1" height="1" fill="#000000" opacity="0.266667" />
<rect x="32" y="35" width="1" height="1" fill="#000000" opacity="0.066667" />
</svg>